<?xml version="1.0" encoding="UTF-8"?>
<svg width="200px" height="200px" viewBox="0 0 200 200" version="1.1" xmlns="http://www.w3.org/2000/svg" xmlns:xlink="http://www.w3.org/1999/xlink">
    <!-- Generator: Sketch 40.1 (33804) - http://www.bohemiancoding.com/sketch -->
    <title>logo_burner_primary</title>
    <desc>Created with Sketch.</desc>
    <defs></defs>
    <g id="Page-1" stroke="none" stroke-width="1" fill="none" fill-rule="evenodd">
        <g id="logo_burner_primary">
            <g id="Group" transform="translate(16.000000, 4.000000)">
                <path d="M153.516,101.505547 C176.978,80.3125473 165.579,51.7125473 153.026,37.5975473 C151.799,36.2175473 149.743,36.3815473 149.607,38.2225473 C149.039,45.8785473 147.701,57.0595473 138.265,56.4665473 C134.644,56.2375473 133.638,55.3565473 131.766,53.4885473 C122.08,43.8015473 125.266,17.2375473 139.181,2.84754727 C140.414,1.57154727 138.705,-0.513452735 137.046,0.115547265 C124.915,4.70854727 99.425,21.0485473 113.5,76.2295473 C122.444,111.286547 121.061,120.419547 111.916,121.444547 C108.555,121.823547 106.071,120.897547 104.27,119.092547 C97.455,112.278547 100.309,101.995547 102.073,93.3005473 C105.141,78.2255473 98.112,67.0335473 91.088,59.9685473 C91.023,59.9035473 90.955,59.8445473 90.881,59.7895473 L88.923,58.3185473 C87.565,57.2995473 85.724,58.5975473 86.19,60.2305473 C88.106,66.9395473 86.846,77.7985473 73.984,94.3195473 C66.878,103.452547 62.381,112.803547 59.586,121.545547 C59.438,122.005547 59.197,122.737547 59,123.519547 C60.529,125.194547 62.162,126.913547 63.949,128.698547 C69.689,134.439547 74.84,138.777547 79.338,142.053547 C91.707,151.064547 99.136,152.055547 100.288,152.157547 C100.393,152.167547 100.446,152.169547 100.446,152.169547 C103.086,152.266547 106.688,150.737547 108.45,148.762547 L121.286,134.397547 C123.045,132.427547 126.393,131.835547 128.729,133.073547 L163.358,151.505547 C163.647,151.659547 163.921,151.845547 164.181,152.053547 C164.184,152.055547 164.187,152.075547 164.189,152.077547 C165.755,153.334547 166.725,155.487547 166.659,157.487547 L166.68,157.487547 C168.942,125.487547 131.707,121.205547 153.516,101.505547" id="Fill-7" fill="#EB922F"></path>
                <path d="M56.1549938,147.144076 C56.1959938,140.380076 57.0179938,131.727076 59.7999938,122.269076 C41.7419938,102.481076 41.2979938,90.9680759 41.2979938,90.9680759 C41.1969938,88.3290759 42.7289938,84.7260759 44.7009938,82.9700759 L59.0629938,70.1260759 C61.0349938,68.3660759 61.6299938,65.0200759 60.3909938,62.6870759 L41.9559938,28.0530759 C40.7169938,25.7260759 38.3309938,23.9150759 33.8309938,24.0030759 C-5.73800619,24.0030759 0.334993806,66.4320759 0.334993806,66.4320759 C2.34799381,93.9910759 22.7809938,128.763076 43.1219938,149.106076 C47.3209938,153.306076 52.1369938,157.503076 57.3749938,161.547076 C57.3399938,161.387076 56.1039938,155.823076 56.1549938,147.144076" id="Fill-10" fill="#DF522B"></path>
                <path d="M167.31452,155.951 C167.31552,153.936 166.41252,151.811 164.87252,150.557 C164.87052,150.555 164.86752,150.552 164.86452,150.55 C164.60752,150.341 164.33252,150.157 164.04152,150.002 L129.41252,131.57 C127.07652,130.332 123.72852,130.927 121.96952,132.894 L109.13352,147.259 C107.37152,149.234 103.76952,150.763 101.12952,150.666 C101.12952,150.666 101.07652,150.664 100.97152,150.654 C99.8195204,150.552 92.3905204,149.562 80.0215204,140.55 C75.5235204,137.274 70.3725204,132.936 64.6325204,127.195 C62.8455204,125.41 61.2125204,123.691 59.6835204,122.016 C59.6785204,122.011 59.6735204,122.005 59.6685204,122 C56.8865204,131.459 56.0425204,140.112 56.0015204,146.875 C55.9505204,155.554 57.1995204,161.118 57.1995204,161.278 L57.1995204,161.281 C57.1995204,161.281 57.2235204,161.282 57.2245204,161.283 C72.9585204,173.426 92.5305204,184.14 110.76452,189.006 C115.87052,190.369 120.87752,191.274 125.66252,191.623 C125.66252,191.623 125.95152,191.645 126.46852,191.658 C127.82752,191.695 130.81052,191.673 134.58952,191.047 C145.55152,189.232 163.19552,182.328 167.23552,156.947 C167.24152,156.911 167.23952,156.873 167.24452,156.836 C167.28552,156.545 167.31352,156.25 167.31452,155.951" id="Fill-11" fill="#C4242B"></path>
            </g>
        </g>
    </g>
</svg>