<?xml version="1.0" encoding="UTF-8"?>
<svg width="80px" height="80px" viewBox="0 0 80 80" version="1.1" xmlns="http://www.w3.org/2000/svg" xmlns:xlink="http://www.w3.org/1999/xlink">
    <!-- Generator: Sketch 40.1 (33804) - http://www.bohemiancoding.com/sketch -->
    <title>logo_burner_square</title>
    <desc>Created with Sketch.</desc>
    <defs></defs>
    <g id="Page-1" stroke="none" stroke-width="1" fill="none" fill-rule="evenodd">
        <g id="logo_burner_square">
            <path d="M32.8469196,45 C35.1342196,45 35.8694231,44.1558774 36.0055719,43.0803018 L36.1553356,41.9094221 C36.1689505,41.8141179 36.1689505,41.7051989 36.1689505,41.6371244 C36.1689505,40.9563804 35.7196594,40.3845554 34.739388,40.1531024 C35.6788148,39.8808048 36.0736463,39.3498245 36.1689505,38.5737763 L36.2778695,37.7296537 C36.2914844,37.6207346 36.3050993,37.5118156 36.3050993,37.4301263 C36.3050993,36.4770846 35.5698957,35.7418811 33.5548934,35.7418811 L31.2267488,35.7418811 C31.0906,35.7418811 31.0225256,35.8099555 31.0089107,35.9461043 L29.9197202,44.7957768 C29.9061053,44.9591554 29.9877946,45 30.0967137,45 L32.8469196,45 Z M33.3642851,40.6160084 C34.7257731,40.6160084 35.202294,41.0789143 35.202294,41.7188137 C35.202294,41.800503 35.202294,41.8685774 35.1886791,41.9638816 L35.0661452,42.9169232 C34.970841,43.7065863 34.3581714,44.196722 32.9013791,44.196722 L30.968066,44.196722 L31.4037422,40.6160084 L33.3642851,40.6160084 Z M33.5004339,36.545159 C34.8074624,36.545159 35.3248279,36.9399906 35.3248279,37.6071197 C35.3248279,37.688809 35.3248279,37.7704983 35.311213,37.8521876 L35.2159088,38.5601614 C35.1069898,39.3498245 34.5215499,39.8535751 33.2009065,39.8535751 L31.4990464,39.8535751 L31.9074928,36.545159 L33.5004339,36.545159 Z M39.8041237,35.9461043 C39.8177386,35.7963406 39.7360493,35.7418811 39.6271302,35.7418811 L39.0553052,35.7418811 C38.9055415,35.7418811 38.851082,35.8099555 38.8374671,35.9461043 L37.9661148,43.0394572 C37.9524999,43.1483762 37.938885,43.284525 37.938885,43.3662143 C37.938885,44.3464857 38.6877034,45.108919 40.6890909,45.108919 C42.9900058,45.108919 43.7115945,44.2103369 43.8477433,43.1211465 L44.7327105,35.9461043 C44.7463254,35.7963406 44.6646361,35.7418811 44.5557171,35.7418811 L43.9702772,35.7418811 C43.8341284,35.7418811 43.7796689,35.8099555 43.766054,35.9461043 L42.8947016,42.9713828 C42.7993974,43.7610458 42.2003427,44.2784113 40.7571653,44.2784113 C39.4365219,44.2784113 38.9191564,43.85635 38.9191564,43.1619911 C38.9191564,43.0666869 38.9327713,42.9713828 38.9463862,42.835234 L39.8041237,35.9461043 Z M49.3889997,41.228678 L49.7157569,41.228678 L50.9683259,44.7957768 C51.0091706,44.9046958 51.0500152,45 51.186164,45 L51.7716039,45 C51.9077527,45 52.0030569,44.9183107 51.9622122,44.7957768 L50.6551837,41.119759 C51.9622122,40.8610762 52.4523479,40.1531024 52.561267,39.3089798 L52.7382604,37.8385727 C52.7518753,37.7432685 52.7518753,37.6343495 52.7518753,37.5526602 C52.7518753,36.5587739 52.0166717,35.7418811 50.0016694,35.7418811 L47.3467676,35.7418811 C47.2106188,35.7418811 47.1425444,35.8099555 47.1289295,35.9461043 L46.0397391,44.7957768 C46.0261242,44.9591554 46.1078135,45 46.2167325,45 L46.8021724,45 C46.9383212,45 46.9927807,44.9319256 47.0063956,44.7957768 L47.4420718,41.228678 L49.3889997,41.228678 Z M49.9608247,36.5723888 C51.2950831,36.5723888 51.7716039,37.008065 51.7716039,37.7432685 C51.7716039,37.8113429 51.7716039,37.8930322 51.757989,37.9883364 L51.6218402,39.1592161 C51.526536,39.9488792 50.9274813,40.4117852 49.470689,40.4117852 L47.5509908,40.4117852 L48.0275117,36.5723888 L49.9608247,36.5723888 Z M61.0161079,35.9461043 C61.0297228,35.8099555 60.9888782,35.7418811 60.8527294,35.7418811 L60.321749,35.7418811 C60.1856002,35.7418811 60.1175258,35.8099555 60.1039109,35.9461043 L59.2325585,43.1347613 C59.2053288,43.0122274 59.0011056,42.5220917 58.9058014,42.3178685 L56.0330616,35.8235704 C56.0058318,35.7554959 55.9513723,35.7418811 55.8560681,35.7418811 L55.3795473,35.7418811 C55.2297836,35.7418811 55.1617092,35.8099555 55.1480943,35.9461043 L54.0589038,44.7957768 C54.045289,44.9319256 54.0997485,45 54.2495122,45 L54.7668776,45 C54.9030265,45 54.957486,44.9319256 54.9711009,44.7957768 L55.8560681,37.6071197 C55.9377574,37.8521876 56.0875211,38.2470191 56.210055,38.5057019 L59.0419502,44.9046958 C59.06918,44.9727702 59.1236395,45 59.2325585,45 L59.7226943,45 C59.8588431,45 59.9133026,44.9319256 59.9269175,44.7957768 L61.0161079,35.9461043 Z M67.4151019,45 C67.5512507,45 67.6193251,44.9455405 67.63294,44.7957768 L67.6873995,44.3601006 C67.7010144,44.2239518 67.6465549,44.1694923 67.4967912,44.1694923 L63.4667865,44.1694923 L63.9160775,40.547934 L67.5512507,40.547934 C67.6873995,40.547934 67.741859,40.4934745 67.7690888,40.3437108 L67.8235483,39.9488792 C67.8507781,39.7991155 67.7827037,39.744656 67.6465549,39.744656 L64.0113817,39.744656 L64.4062132,36.5723888 L68.2864543,36.5723888 C68.4226031,36.5723888 68.4906775,36.5179293 68.5042924,36.3681656 L68.5587519,35.9461043 C68.5723668,35.7963406 68.5179072,35.7418811 68.3817584,35.7418811 L63.7254692,35.7418811 C63.5893204,35.7418811 63.521246,35.8099555 63.5076311,35.9461043 L62.4184406,44.7957768 C62.4048258,44.9319256 62.4592853,45 62.5954341,45 L67.4151019,45 Z M72.9018988,41.228678 L73.228656,41.228678 L74.481225,44.7957768 C74.5220697,44.9046958 74.5629143,45 74.6990631,45 L75.284503,45 C75.4206518,45 75.515956,44.9183107 75.4751113,44.7957768 L74.1680828,41.119759 C75.4751113,40.8610762 75.965247,40.1531024 76.0741661,39.3089798 L76.2511595,37.8385727 C76.2647744,37.7432685 76.2647744,37.6343495 76.2647744,37.5526602 C76.2647744,36.5587739 75.5295708,35.7418811 73.5145685,35.7418811 L70.8596667,35.7418811 C70.7235179,35.7418811 70.6554435,35.8099555 70.6418286,35.9461043 L69.5526382,44.7957768 C69.5390233,44.9591554 69.6207126,45 69.7296316,45 L70.3150715,45 C70.4512203,45 70.5056798,44.9319256 70.5192947,44.7957768 L70.9549709,41.228678 L72.9018988,41.228678 Z M73.4737238,36.5723888 C74.8079822,36.5723888 75.284503,37.008065 75.284503,37.7432685 C75.284503,37.8113429 75.284503,37.8930322 75.2708881,37.9883364 L75.1347393,39.1592161 C75.0394351,39.9488792 74.4403804,40.4117852 72.9835881,40.4117852 L71.0638899,40.4117852 L71.5404108,36.5723888 L73.4737238,36.5723888 Z" id="BURNER" fill="#EF580C"></path>
            <g id="Group" transform="translate(3.000000, 28.000000)">
                <path d="M19.1895,13.2168681 C22.12225,10.4573629 20.697375,6.73340459 19.12825,4.89551397 C18.974875,4.71582647 18.717875,4.73718063 18.700875,4.97689418 C18.629875,5.97376918 18.462625,7.42962855 17.283125,7.35241501 C16.8305,7.3225973 16.70475,7.20788376 16.47075,6.96465459 C15.26,5.70332647 15.65825,2.2444723 17.397625,0.370774383 C17.55175,0.20462855 17.338125,-0.0668558249 17.13075,0.0150452168 C15.614375,0.613092092 12.428125,2.74069626 14.1875,9.9257223 C15.3055,14.4904358 15.132625,15.6796286 13.9895,15.8130921 C13.569375,15.8624411 13.258875,15.7418681 13.03375,15.5068421 C12.181875,14.6196025 12.538625,13.2806702 12.759125,12.1485088 C13.142625,10.1856181 12.264,8.72832647 11.386,7.80840459 C11.377875,7.79994105 11.369375,7.79225876 11.360125,7.7850973 L11.115375,7.59356084 C10.945625,7.46087855 10.7155,7.62988897 10.77375,7.84251918 C11.01325,8.71608688 10.85575,10.1300192 9.248,12.2811911 C8.35975,13.4703838 7.797625,14.6879619 7.44825,15.8262431 C7.42975,15.886139 7.399625,15.9814515 7.375,16.0832744 C7.566125,16.3013733 7.77025,16.5252015 7.993625,16.7576233 C8.711125,17.5051494 9.355,18.0699931 9.91725,18.4965556 C11.463375,19.6698629 12.392,19.7988994 12.536,19.8121806 C12.549125,19.8134827 12.55575,19.8137431 12.55575,19.8137431 C12.88575,19.8263733 13.336,19.6272848 13.55625,19.3701233 L15.16075,17.4996806 C15.380625,17.2431702 15.799125,17.1660869 16.091125,17.3272848 L20.41975,19.7272848 C20.455875,19.7473369 20.490125,19.7715556 20.522625,19.798639 C20.523,19.7988994 20.523375,19.8015036 20.523625,19.801764 C20.719375,19.9654358 20.840625,20.2457744 20.832375,20.5061911 L20.835,20.5061911 C21.11775,16.3395244 16.463375,15.7819723 19.1895,13.2168681" id="Fill-7" fill="#EB922F"></path>
                <path d="M7.01937423,19.1593849 C7.02449923,18.2786557 7.12724923,17.151963 7.47499923,15.9204526 C5.21774923,13.3438901 5.16224923,11.8448015 5.16224923,11.8448015 C5.14962423,11.5011818 5.34112423,11.0320411 5.58762423,10.8033953 L7.38287423,9.13099946 C7.62937423,8.9018328 7.70374923,8.46615571 7.54887423,8.16237967 L5.24449923,3.65274425 C5.08962423,3.34974946 4.79137423,3.11394217 4.22887423,3.1254005 C-0.717250774,3.1254005 0.0418742257,8.65000988 0.0418742257,8.65000988 C0.293499226,12.2384213 2.84762423,16.7660255 5.39024923,19.4148536 C5.91512423,19.9617286 6.51712423,20.508213 7.17187423,21.0347755 C7.16749923,21.0139422 7.01299923,20.289463 7.01937423,19.1593849" id="Fill-10" fill="#DF522B"></path>
                <path d="M20.914315,20.3061198 C20.91444,20.04375 20.801565,19.7670573 20.609065,19.603776 C20.608815,19.6035156 20.60844,19.603125 20.608065,19.6028646 C20.57594,19.575651 20.541565,19.5516927 20.50519,19.5315104 L16.176565,17.1315104 C15.884565,16.9703125 15.466065,17.0477865 15.24619,17.3039063 L13.64169,19.174349 C13.42144,19.4315104 12.97119,19.630599 12.64119,19.6179688 C12.64119,19.6179688 12.634565,19.6177083 12.62144,19.6164063 C12.47744,19.603125 11.548815,19.4742188 10.00269,18.3007813 C9.44044005,17.8742188 8.79656505,17.309375 8.07906505,16.561849 C7.85569005,16.3294271 7.65156505,16.105599 7.46044005,15.8875 C7.45981505,15.886849 7.45919005,15.8860677 7.45856505,15.8854167 C7.11081505,17.1170573 7.00531505,18.24375 7.00019005,19.124349 C6.99381505,20.2544271 7.14994005,20.9789063 7.14994005,20.9997396 L7.14994005,21.0001302 C7.14994005,21.0001302 7.15294005,21.0002604 7.15306505,21.0003906 C9.11981505,22.5815104 11.566315,23.9765625 13.845565,24.6101563 C14.483815,24.7876302 15.10969,24.9054688 15.707815,24.9509115 C15.707815,24.9509115 15.74394,24.953776 15.808565,24.9554688 C15.97844,24.9602865 16.351315,24.9574219 16.82369,24.8759115 C18.19394,24.6395833 20.39944,23.740625 20.90444,20.4358073 C20.90519,20.4311198 20.90494,20.4261719 20.905565,20.4213542 C20.91069,20.3834635 20.91419,20.3450521 20.914315,20.3061198" id="Fill-11" fill="#C4242B"></path>
            </g>
        </g>
    </g>
</svg>